<?xml version="1.0" encoding="utf-8"?>
<!-- Generator: Adobe Illustrator 20.1.0, SVG Export Plug-In . SVG Version: 6.00 Build 0)  -->
<svg version="1.1" id="Layer_1" xmlns="http://www.w3.org/2000/svg" xmlns:xlink="http://www.w3.org/1999/xlink" x="0px" y="0px"
	 viewBox="0 0 1028.9 287.1" style="enable-background:new 0 0 1028.9 287.1;" xml:space="preserve">
<style type="text/css">
	.st0{fill:#fff; stroke:#fff}
</style>
<g>
	<g>
		<g>
			<g>
				<g>
					<rect x="460.1" y="159.6" class="st0" width="0.5" height="14.5"/>
				</g>
				<g>
					<rect x="458.7" y="168.3" class="st0" width="3.1" height="0.2"/>
				</g>
				<g>
					<rect x="458" y="164.8" class="st0" width="5" height="0.6"/>
				</g>
				<g>
					<rect x="458.7" y="162.7" class="st0" width="2.6" height="0.3"/>
				</g>
				<g>
					<rect x="458.9" y="160.9" class="st0" width="2.4" height="0.5"/>
				</g>
			</g>
			<g>
				<g>
					<g>
						<path class="st0" d="M499.9,173.2v-25.3h1.3l0.6-6.2v5.2h1.1v-10.9h0.3v-11.2h1.5v-4.9h0.4v-5.9h0.8v-9.1h1.1V102l1.6,5v-2.3
							l1.3,4.8v5h0.8l12.6-85.7v-0.9h-1.2v-0.5h1.8v-2.8l-1.5-1.6h-1.1v-1.8h2.7v-2.3l-1.5-1.5h2.2v-5.2l0.5,5h1.8l-1.7,1.7v2.1h3
							v1.5h-1.9l-1.1,1.1v2.9v0.7h1.6v0.5h-1.3l11.5,83v-6h1.3V102h1v4h1.5v-2.6h0.7V116h1.6v9.1h0.5v15.4h0.9V154l0.4,0.4v-5.6h0.6
							v-4.4l0.4,9.9v19.8c0,0-44.6,0-45.3,0c-0.7,0-0.7,0-0.7,0L499.9,173.2z"/>
					</g>
					<g>
						<rect x="521.3" y="32.5" class="st0" width="6.5" height="0.5"/>
						<rect x="520.8" y="35.7" class="st0" width="7.5" height="0.5"/>
						<rect x="520.3" y="39" class="st0" width="8.5" height="0.5"/>
						<rect x="519.8" y="42.2" class="st0" width="9.4" height="0.5"/>
						<rect x="519.4" y="45.4" class="st0" width="10.4" height="0.5"/>
						<rect x="518.9" y="48.7" class="st0" width="11.4" height="0.5"/>
						<rect x="518.4" y="51.9" class="st0" width="12.3" height="0.5"/>
						<rect x="517.9" y="55.1" class="st0" width="13.3" height="0.5"/>
						<rect x="517.4" y="58.4" class="st0" width="14.3" height="0.5"/>
						<rect x="516.9" y="61.6" class="st0" width="15.2" height="0.5"/>
						<rect x="516.5" y="64.8" class="st0" width="16.2" height="0.5"/>
						<rect x="516" y="68.1" class="st0" width="17.2" height="0.5"/>
						<rect x="515.5" y="71.3" class="st0" width="18.1" height="0.5"/>
						<rect x="515" y="74.5" class="st0" width="19.1" height="0.5"/>
						<rect x="514.5" y="77.8" class="st0" width="20" height="0.5"/>
						<rect x="514" y="81" class="st0" width="21" height="0.5"/>
						<rect x="513.6" y="84.2" class="st0" width="22" height="0.5"/>
						<rect x="513.1" y="87.4" class="st0" width="22.9" height="0.5"/>
						<rect x="512.6" y="90.7" class="st0" width="23.9" height="0.5"/>
						<rect x="512.1" y="93.9" class="st0" width="24.9" height="0.5"/>
						<rect x="511.6" y="97.1" class="st0" width="25.8" height="0.5"/>
						<rect x="511.1" y="100.4" class="st0" width="26.8" height="0.5"/>
						<rect x="510.7" y="103.6" class="st0" width="27.8" height="0.5"/>
						<rect x="510.2" y="106.8" class="st0" width="28.7" height="0.5"/>
						<rect x="509.7" y="110.1" class="st0" width="29.7" height="0.5"/>
					</g>
				</g>
				<g>
					<g>
						<path class="st0" d="M554.4,173.2v-25.3h1.3l0.6-6.2v5.2h1.1v-10.9h0.3v-11.2h1.5v-4.9h0.4v-5.9h0.8v-9.1h1.1V102l1.6,5v-2.3
							l1.3,4.8v5h0.8l12.6-85.7v-0.9h-1.2v-0.5h1.8v-2.8l-1.6-1.6h-1.1v-1.8h2.7v-2.3l-1.5-1.5h2.2v-5.2l0.5,5h1.8l-1.7,1.7v2.1h3
							v1.5h-1.9l-1.1,1.1v2.9v0.7h1.5v0.5h-1.3l11.5,83v-6h1.3V102h1v4h1.6v-2.6h0.7V116h1.6v9.1h0.5v15.4h0.9V154l0.4,0.4v-5.6h0.6
							v-4.4l0.4,9.9v19.8c0,0-44.6,0-45.3,0c-0.7,0-0.7,0-0.7,0L554.4,173.2z"/>
					</g>
					<g>
						<rect x="575.8" y="32.5" class="st0" width="6.5" height="0.5"/>
						<rect x="575.3" y="35.7" class="st0" width="7.5" height="0.5"/>
						<rect x="574.8" y="39" class="st0" width="8.5" height="0.5"/>
						<rect x="574.3" y="42.2" class="st0" width="9.4" height="0.5"/>
						<rect x="573.8" y="45.4" class="st0" width="10.4" height="0.5"/>
						<rect x="573.4" y="48.7" class="st0" width="11.4" height="0.5"/>
						<rect x="572.9" y="51.9" class="st0" width="12.3" height="0.5"/>
						<rect x="572.4" y="55.1" class="st0" width="13.3" height="0.5"/>
						<rect x="571.9" y="58.4" class="st0" width="14.3" height="0.5"/>
						<rect x="571.4" y="61.6" class="st0" width="15.2" height="0.5"/>
						<rect x="570.9" y="64.8" class="st0" width="16.2" height="0.5"/>
						<rect x="570.5" y="68.1" class="st0" width="17.2" height="0.5"/>
						<rect x="570" y="71.3" class="st0" width="18.1" height="0.5"/>
						<rect x="569.5" y="74.5" class="st0" width="19.1" height="0.5"/>
						<rect x="569" y="77.8" class="st0" width="20" height="0.5"/>
						<rect x="568.5" y="81" class="st0" width="21" height="0.5"/>
						<rect x="568" y="84.2" class="st0" width="22" height="0.5"/>
						<rect x="567.6" y="87.4" class="st0" width="22.9" height="0.5"/>
						<rect x="567.1" y="90.7" class="st0" width="23.9" height="0.5"/>
						<rect x="566.6" y="93.9" class="st0" width="24.9" height="0.5"/>
						<rect x="566.1" y="97.1" class="st0" width="25.8" height="0.5"/>
						<rect x="565.6" y="100.4" class="st0" width="26.8" height="0.5"/>
						<rect x="565.1" y="103.6" class="st0" width="27.8" height="0.5"/>
						<rect x="564.7" y="106.8" class="st0" width="28.7" height="0.5"/>
						<rect x="564.2" y="110.1" class="st0" width="29.7" height="0.5"/>
					</g>
				</g>
				<g>
					<path class="st0" d="M439.8,286.5v-32.4h3.4v-20.2h1.4v-18.4l0.7-5.3v13.6h2.1v-8l2.6-6.9v-5.4h1v-14l0.6-1.5v-6.4h1.4v-3h0.6
						l0.5-8.4h-0.7v-0.3h0.7v-1.1v1v-1h0.2v1.2h0.8v0.3h-0.8l0.8,8.5h0.6v3.3l1.1,1.1v-3.5h0.9v3.5l1.5-10.2h146.4l1.6,6.3l0.6-7.8
						h-0.8v-0.3h0.8V170h0.3v1h0.8v0.2h-0.8l1.6,12.8h0.8v0.6c0,0-0.5,0-0.5,0c0,0,0,4.8,0,4.8h0.6v20.9c0,0,1.6,0.2,1.6,0
						c0-0.2,0-1.3,0-1.3h0.3v11.4h1V219h0.3v-3.7h-0.5v-0.4h0.5V214h0.3v0.8h0.5v0.3h-0.5v4.2h0.5v13.5h0.7v22l2.4,2.4h-2.3V269
						v17.5H439.8z"/>
				</g>
				<g>
					<rect x="605" y="159.5" class="st0" width="0.3" height="14.8"/>
				</g>
				<g>
					<rect x="604.5" y="168.3" class="st0" width="2" height="0.3"/>
				</g>
				<g>
					<rect x="603.1" y="164.9" class="st0" width="4.6" height="0.3"/>
				</g>
				<g>
					<rect x="604.5" y="162.6" class="st0" width="2.2" height="0.2"/>
				</g>
				<g>
					<rect x="604.5" y="160.6" class="st0" width="2" height="0.3"/>
				</g>
			</g>
		</g>
		<g>
			<polygon class="st0" points="335.6,286.5 333.2,184.4 341.5,184.4 344.8,174.5 333.2,174.5 333.2,170.6 343.4,170.6 341.5,168.8 
				333.8,168.8 333.8,164.8 339,164.8 337.9,163.7 333.9,163.7 333.2,162.3 334.7,162.3 333,160.6 331.5,127.1 329.1,160.5 
				328.3,161.3 329.4,161.3 329.4,163.1 329.4,163.8 323.4,163.8 322.7,165.2 329.4,165.2 329.4,167.9 322,167.9 319.5,170.4 
				329.9,170.4 329.9,174.1 316.6,174.1 320.7,184.6 328.3,184.6 326,286.5 			"/>
		</g>
		<g>
			<path class="st0" d="M440.7,286.5v-31.3h-9.5l-3.4-7.2l-3,6.1v-27.9h0.8l-1-1v-11.9h0.7l-3-8.7v-3.1l-0.3,3.3l-3,6.1v2.4h0.6v7.9
				h-2.2l-2.4-4.4l-6.5-32.9v-8.2l-0.5,8.3l-6.4,32.4l-2.6,5h-2.1v-7.9h1l-2.9-8.3l-3.3,6.2v2.2h0.6l0.1,12.4l-0.7,0.7h0.6v11.7
				l-0.6,0.6v7.4h-13.3l-5.8,8.6h-6.1l-5.1,5.1l-7.3-7.3h-12.2v9.9v9.5l-5.9-5.3l-4.5,8.6l-3.8-6.4l-5,7.9h-4.6v-10l-5.2-8.1h-5.5
				l-1.9-1.9h-1.2v-12.4l-0.6-5.1v5.6l-4.7-17.3l-1.1-2.8v-6.4v6.7l-1.8,2.5l-3.6,15.7v-3.3l-2.2-1.9l-1.7,3.3v16.9l-1.8-3.7
				c0,0-1,0.2-1.2,0c-0.2-0.2,0-3.7,0-3.7l-0.7-8.9l-0.7,9v4.7h-6.3l-1.5,2.5l0.3,15l-5.6-9.2h-7.6l-6.5,9.2v4.2v9.1H440.7z"/>
		</g>
		<g>
			<g>
				<path class="st0" d="M1028.9,287.1v-6.4h-22v-63l-8-4v-33.9v-15.7l-3.1-2.3v4.8l-2.1-1.1V161l-4.1-2.4c0,0,0.2,5.1,0,4.9
					c-0.2-0.2-1.9-1.6-1.9-1.6v-4.3l-4.1-2.4v5.1l-2.3-0.9v-5.5l-2.7-1.6l-5.2,0.7v4.8h-3.2v-4.5h-4.9l-2.5,2.3v4.4l-1.9,1.2v-4.5
					l-3.1,2.5v4.5l-1.6,0.9v-4.8l-3.6,3.5v4.8l-2.3,0.5v-4.3l-1.5,1.9v12.2l0.8,4.9v33.3h-6.1v44.2h-3.2L922,272.5h-4l-10,10v4.5
					H1028.9z"/>
			</g>
		</g>
		<g>
			<g>
				<polygon class="st0" points="740.9,284.4 740.9,243.2 743.4,243.2 743.4,222.2 745.3,220.3 745.3,195.3 746.9,194.2 
					746.9,199.4 747.6,198.7 748,192.1 752,188.6 752,196.5 753.6,195.8 753.6,189.8 755.1,187.2 760.4,186.3 760.4,194.5 
					764.5,194.5 764.5,186.8 771.6,187.7 771.6,195.5 775.3,196.8 775.3,189 779.2,190.9 779.2,199.2 782.8,201 782.8,193.5 
					784.2,197.6 784.2,199.2 785.7,199.2 785.7,206 789.5,206 789.5,198.9 795.5,198.9 795.5,205.8 799.2,205.8 799.2,198.5 
					805.2,198.5 805.2,205.8 809,205.8 809,198.3 815.3,198.3 815.3,206.1 818.3,206.1 818.3,198.2 821.3,198.2 824.5,193.2 
					824.5,198.3 826.9,196.8 826.9,193.7 827.9,191.4 833.1,189.3 833.1,194.7 837.4,194.7 837.4,188.5 844.7,188.5 844.7,193.3 
					848.3,193.3 848.3,187.8 854.7,189.8 854.7,195.3 858.2,196.9 858.2,190.6 860.2,194.8 860.2,221.1 862.2,222.2 862.2,243.1 
					864,243.8 864,284.4 				"/>
			</g>
			<g>
				<path class="st0" d="M765,171c0,0-4.1,3.8-4.3,5.5c-0.2,1.7-0.7,7.6-0.7,7.6s0.7,0.8,1.2,0.3c0.5-0.5,3.3-0.6,3.3-0.6l0.2-0.1
					L765,171z"/>
			</g>
			<g>
				<path class="st0" d="M840.1,173.1c0,0-3.4,5.7-3.2,6.9c0.2,1.2-0.3,4.6-0.3,4.6s0.7,1.2,0.8,1.3c0.1,0,0.5,0.5,1.9-0.2
					c1.4-0.6,1.2-0.9,1.2-0.9L840.1,173.1z"/>
			</g>
			<g>
				<rect x="840.2" y="171.8" class="st0" width="0.3" height="17.2"/>
			</g>
			<g>
				<polygon class="st0" points="764.6,187.6 764.9,187.6 764.9,170.8 764.6,170.8 				"/>
			</g>
		</g>
		<g>
			<polygon class="st0" points="590.2,287.1 590.2,250.2 638,250.2 638,243.4 642.3,243.4 649.4,229.6 651.8,225.5 656.6,229.2 
				660.8,239.6 665.2,243.7 665.2,251.5 675,251.5 675,235.6 675.9,235.6 675.9,251.8 680.3,251.8 680.3,262 686.7,251 694.4,262.4 
				699.8,262.4 706.2,250.3 713.3,262.5 718,262.5 724.6,250.8 731.5,262.5 736,262.5 736,244.5 809.6,244.5 814,253.1 814,263.3 
				820.2,263.3 825.9,251.5 833,263.4 837.6,263.4 843.6,252 850.2,263.7 855.3,263.7 860.8,251.7 866.6,264 871,264 871,259.6 
				873.3,259.6 873.3,249 875.8,260.3 886.6,260.3 891.2,255.4 895.4,259.6 898.9,259.6 908,268.7 908,276 908,287.1 			"/>
		</g>
		<g>
			<path class="st0" d="M262.5,236.9v49.6H0v-24.1h1.3l6-12.9l7.6,12.9v-2.6l1.6,0.7l6.6-14l6.2,12.9v-4.2h2.1l10.2-19.5
				c0,0,2.9,0.2,3.1,0c0.2-0.2,2.3-2.3,2.3-2.3l2,2v-25.6l3.6-11.5l5.1,7.9v-4.7l6.1-21.2v-4.8l3.2-8l0.8-9.4v9.5l2.8,8v4.2
				l6.8,25.6l1.4-5.2l1.9,9.4v15.3h0.9v9.9l4.1,0.7l17.4-2.8v-7.6h1l1.7-23.9v23.6h1.7v6.6h1.8v2.9l2.5-4.6h5.5l4.9,5.1h2.9v2.1h8.1
				l5.3-8.1h6.6l3.2,8.1h13.1v-2.7l-2.5-2.5l18.1-18.1h7.2v-14l-0.7-0.7c0,0,1.6-1.4,1.4-1.4s0-22.7,0-22.7l-1.3-1.3l1.4-1.4v-9.4
				l0.8-0.8v-10.9l-1.4-1.4l6-16.4l0.3-3.2c-0.3-0.1-0.6-0.4-0.6-0.7c0-0.4,0.3-0.7,0.7-0.7l0-0.4v0.4c0.4,0,0.7,0.3,0.7,0.7
				c0,0.4-0.3,0.7-0.7,0.7v3.1l5.4,16.9l-0.8,0.8v13.5h2.7l3.7-8.9v-7.8l-0.8-0.8l6-17.2l0.4-3.7c-0.4,0-0.6-0.4-0.6-0.7
				c0-0.4,0.3-0.7,0.7-0.7c0,0,0,0,0.1,0l0.1-0.6v0.6c0.3,0.1,0.6,0.4,0.6,0.7c0,0.4-0.3,0.7-0.6,0.7v3.7h0.8l7.8-34.7v-4
				c-0.6-0.2-0.9-0.7-0.9-1.3c0-0.6,0.4-1.1,0.9-1.3v-7.4c-0.5-0.1-0.8-0.4-1-0.9h-1.5V79h1.5c0.1-0.4,0.5-0.8,1-0.9V76h0.7v2.2
				c0.4,0.1,0.7,0.4,0.8,0.8h1.8v0.8h-1.8c-0.1,0.4-0.4,0.7-0.8,0.8v7.4c0.6,0.1,1,0.7,1,1.3c0,0.6-0.4,1.1-1,1.3v2.9l7.8,40.6
				l5.3,14v7.4l2.9,8.1h2.3v-2.9h0.7v-11.3l-1-1l6.1-16.9l0.3-3c-0.4,0-0.7-0.3-0.7-0.7c0-0.4,0.3-0.7,0.7-0.7c0,0,0.1,0,0.1,0
				l0.1-0.5v0.5c0.3,0.1,0.6,0.4,0.6,0.7c0,0.4-0.2,0.6-0.6,0.7v2.8l5.6,17.4l-1,1v11.1h0.3V172l1,1l-0.8,0.8v23.5l1.1,1.1l-0.8,0.8
				v30.2h1.3L262.5,236.9z"/>
		</g>
		<g>
			<g>
				<path class="st0" d="M870,235.5l-1.6,1.6l0,0l-0.1,0.1l-0.3-0.3l-2.1-2.1l-9.5-9.5v56h-2.4v-59.2c0.8-0.1,1.5-0.2,2.3-0.2
					l2.2,2.2l9.5,9.5l1.1,1.1L870,235.5z"/>
			</g>
		</g>
		<g>
			<g>
				<path class="st0" d="M883.9,235.5l-1.3,1.4l0,0l-0.3,0.3l-0.3-0.3l0,0l-2.4-2.4l-9.1-9.1v56h-2.4v-60.3c0.4,0,0.9-0.1,1.3-0.1
					l2.3,2.3h0l10.3,10.3l0.9,0.9L883.9,235.5z"/>
			</g>
		</g>
		<g>
			<g>
				<polygon class="st0" points="897.8,235.5 896.1,237.2 895.9,236.9 893.8,234.8 884.3,225.3 884.3,281.3 882,281.3 882,220.7 
					883,220.7 885.4,223 895.9,233.5 897.4,235.1 897.4,235.1 				"/>
			</g>
		</g>
		<g>
			<g>
				<path class="st0" d="M910.5,234.3l-1.7,1.7l-0.3-0.3l-10.3-10.3v56h-2.4V221c0.5,0,1,0.1,1.4,0.1l2.6,2.6l8.7,8.7L910.5,234.3z"
					/>
			</g>
		</g>
		<g>
			<g>
				<path class="st0" d="M922.4,235l-1.7,1.6l-0.3-0.3l-9.6-10.1v55h-2.4V222c0.6,0.1,1.2,0.1,1.7,0.2l2.6,2.8l7.6,8L922.4,235z"/>
			</g>
		</g>
		<g>
			<g>
				<path class="st0" d="M933.9,237.8l-1.1,1l-0.1,0.1l0,0l-0.5,0.4l-3.6-4.2l-1.5-1.8l-4.2-4.8v52.8h-2.4v-57.7
					c0.5,0.1,0.9,0.2,1.4,0.2l2.5,2.9l4.5,5.3l1.5,1.8l2.4,2.7l0.9,1.1L933.9,237.8z"/>
			</g>
		</g>
		<g>
			<g>
				<path class="st0" d="M945.6,229.3v52.1h-2.4v-52.7C944,228.8,944.8,229,945.6,229.3z"/>
			</g>
		</g>
		<g>
			<g>
				<polygon class="st0" points="945.5,229.3 945.5,281.3 943.2,281.3 943.2,233.8 935.2,239.5 933.8,240.5 932.8,239.1 
					932.7,238.9 932.4,238.6 932.8,238.3 933.8,237.6 935.2,236.6 943,231.1 943,231.1 943.2,230.9 				"/>
			</g>
		</g>
		<g>
			<g>
				<polygon class="st0" points="935.2,227.6 935.2,281.3 932.8,281.3 932.8,232.1 930.5,233.8 928.5,235.2 923.8,238.5 
					923.4,238.8 923.1,238.4 922.8,237.9 922.1,236.9 922.8,236.3 927,233.4 928.9,232 933.6,228.7 933.6,228.7 				"/>
			</g>
		</g>
		<g>
			<g>
				<path class="st0" d="M957,233v48.3h-2.4v-44.9l-9,6.4l-0.1,0l-0.3,0.2l-1.4-1.9l1.7-1.2l0.1,0l7.9-5.6l2.4-1.7
					C956.3,232.7,956.6,232.8,957,233z"/>
			</g>
		</g>
		<g>
			<g>
				<path class="st0" d="M968.3,237.5v43.8h-2.4v-40.9l-9,6.3l-0.4,0.3l-1.4-1.9l1.8-1.3l7.5-5.3l2.3-1.6
					C967.3,237.1,967.8,237.3,968.3,237.5z"/>
			</g>
		</g>
		<g>
			<g>
				<path class="st0" d="M979.6,242.9v38.4h-2.4v-34.9l-8.8,6.3l0,0l-0.1,0.1l-0.4,0.3l-0.7-1v0l-0.7-0.9l1.8-1.3l8.2-5.8l2.2-1.6
					C979,242.6,979.3,242.8,979.6,242.9z"/>
			</g>
		</g>
		<g>
			<g>
				<path class="st0" d="M989.3,248.4v32.9H987v-28.8l-7.4,5.2l-0.4,0.3l-0.1,0l-0.1-0.1c0,0,0,0,0,0l-1.3-1.8l1.8-1.3l7.3-5.2
					l2.1-1.5C989.1,248.3,989.2,248.3,989.3,248.4z"/>
			</g>
		</g>
		<g>
			<g>
				<path class="st0" d="M999.1,254.7v26.6h-2.4v-22.9l-7.4,5.2l-0.2,0.2l-0.2,0.1l-0.4-0.5l0,0l-1-1.4l1.8-1.3l7.1-5l2-1.5
					C998.7,254.5,998.9,254.6,999.1,254.7z"/>
			</g>
		</g>
		<g>
			<g>
				<path class="st0" d="M1007.8,261.3v20h-2.4v-16.5l-6.3,4.5l-0.4,0.3l-1.4-1.9l1.8-1.3l6-4.3l2-1.4
					C1007.3,260.9,1007.6,261.1,1007.8,261.3z"/>
			</g>
		</g>
		<g>
			<g>
				<polygon class="st0" points="1016.3,270.7 1016.3,281.3 1014,281.3 1014,274.4 1007.8,277.4 1007.7,277.4 1007.2,277.7 
					1006.6,276.5 1006.1,275.6 1007.8,274.8 1015.5,271.1 				"/>
			</g>
		</g>
		<g>
			<g>
				<polygon class="st0" points="1024.9,279.5 1024.9,281.3 1021.1,281.3 1024.1,279.8 				"/>
			</g>
		</g>
		<g>
			<g>
				<path class="st0" d="M1028.6,281.3h-3.1c-0.2-0.2-0.4-0.4-0.6-0.6c-0.2-0.3-0.5-0.5-0.8-0.8l0,0c-2.3-2.5-4.9-5.2-7.8-7.9l0,0
					c-0.3-0.3-0.6-0.5-0.8-0.8c-2.4-2.2-4.9-4.5-7.7-6.8c-0.9-0.7-1.8-1.4-2.7-2.1c-1.9-1.5-3.9-3-6-4.5c-0.9-0.6-1.8-1.3-2.7-1.9
					c-1-0.7-2-1.4-3-2c-1.3-0.9-2.7-1.7-4.1-2.6c-0.8-0.5-1.6-1-2.4-1.5c-2.3-1.4-4.8-2.8-7.3-4.1c-1-0.5-2-1.1-3.1-1.6
					c-2.6-1.3-5.4-2.6-8.2-3.9c-1.2-0.6-2.5-1.1-3.8-1.6c-2.4-1-4.9-2-7.5-2.9c-1.1-0.4-2.3-0.8-3.5-1.2c-2.5-0.9-5.2-1.7-7.9-2.5
					c0,0,0,0-0.1,0c-0.8-0.2-1.5-0.4-2.3-0.7c-0.1,0-0.1-0.1-0.2-0.1h0c-2.5-0.7-5.2-1.4-7.8-2c-0.5-0.1-1-0.3-1.6-0.4h0
					c-3-0.7-6.1-1.3-9.2-1.9c-1.3-0.2-2.6-0.5-3.9-0.7c-2.5-0.4-5-0.8-7.6-1.1c-1.4-0.2-2.9-0.4-4.4-0.5c-2.8-0.3-5.7-0.6-8.7-0.8
					c-1.3-0.1-2.7-0.2-4-0.2c-3.4-0.2-6.9-0.3-10.5-0.4c-1.1,0-2.3,0-3.4,0c-3.4,0-6.8,0.1-10.3,0.2h0c-1.2,0-2.4,0.1-3.6,0.2
					c-3.1,0.2-6.3,0.4-9.5,0.7c-1.5,0.1-2.9,0.3-4.4,0.4c-3.3,0.3-6.8,0.8-10.2,1.2l-0.3-2.3c3.5-0.5,7.1-0.9,10.5-1.3
					c0.8-0.1,1.5-0.2,2.3-0.2c3.9-0.4,7.8-0.7,11.6-0.9c0.4,0,0.9-0.1,1.3-0.1c4.2-0.2,8.4-0.3,12.6-0.3h1c4.4,0,8.7,0.1,12.9,0.3
					c0.5,0,1,0.1,1.4,0.1c3.8,0.2,7.5,0.5,11.2,0.9c0.6,0.1,1.2,0.1,1.7,0.2c3.4,0.4,6.8,0.8,10.2,1.4c0.5,0.1,0.9,0.2,1.4,0.2
					c4.2,0.7,8.4,1.5,12.5,2.5c3,0.7,5.9,1.4,8.9,2.3c0.8,0.2,1.6,0.4,2.4,0.7c3.5,1,6.9,2.1,10.3,3.3c0.3,0.1,0.7,0.2,1,0.4
					c3.3,1.2,6.6,2.5,9.9,3.9c0.5,0.2,1,0.4,1.5,0.6c3.5,1.5,7,3.2,10.4,5c0.3,0.1,0.6,0.3,0.9,0.5c3.2,1.7,6.3,3.4,9.4,5.3
					c0.1,0,0.2,0.1,0.3,0.2c1.8,1.1,3.7,2.3,5.5,3.5c1.3,0.8,2.5,1.6,3.6,2.5c0.2,0.1,0.4,0.3,0.6,0.4c2.8,2,5.5,4,8,6
					c0.2,0.2,0.4,0.3,0.7,0.5C1016.7,268.5,1023.6,275.5,1028.6,281.3z"/>
			</g>
		</g>
		<g>
			<g>
				<path class="st0" d="M1007.8,277.5c1.5,1.3,3,2.6,4.4,3.8h-3.5c-0.3-0.2-0.6-0.5-0.9-0.7c-0.8-0.7-1.5-1.3-2.4-2
					c-2-1.7-4.1-3.3-6.3-5c-0.8-0.6-1.6-1.2-2.4-1.7c-2-1.4-4.1-2.9-6.2-4.3c-0.4-0.2-0.8-0.5-1.2-0.8c-0.8-0.5-1.6-1-2.4-1.5
					c-2.3-1.4-4.8-2.9-7.4-4.3c-0.8-0.4-1.6-0.9-2.4-1.3c-2.8-1.5-5.8-3-9-4.5c-0.8-0.4-1.6-0.7-2.4-1.1c-2.9-1.3-5.9-2.5-9-3.7
					c-0.8-0.3-1.6-0.6-2.4-0.9c-2.9-1.1-5.9-2.1-9-3.1c0,0,0,0-0.1,0c-0.8-0.2-1.5-0.5-2.3-0.7c0,0,0,0-0.1,0
					c-2.6-0.8-5.3-1.5-8-2.2c-0.8-0.2-1.6-0.4-2.4-0.6c-3.2-0.8-6.6-1.5-10-2.2c-0.8-0.1-1.6-0.3-2.4-0.4c-3.1-0.6-6.3-1.1-9.6-1.5
					c-0.8-0.1-1.6-0.2-2.4-0.3c-3.3-0.4-6.8-0.8-10.3-1c-0.8-0.1-1.6-0.1-2.4-0.2c-3.8-0.3-7.6-0.4-11.5-0.5c-0.6,0-1.2,0-1.7,0
					c-0.2,0-0.4,0-0.6,0h0c-3.8,0-7.6,0-11.5,0.1c-0.6,0-1.3,0-2,0.1c-0.1,0-0.2,0-0.2,0c-0.1,0-0.1,0-0.2,0
					c-3.8,0.2-7.6,0.4-11.5,0.7c-0.8,0.1-1.6,0.1-2.4,0.2c-4.3,0.4-8.7,0.9-13.1,1.5l-0.3-2.3c4.5-0.6,9-1.1,13.4-1.5
					c0.8-0.1,1.6-0.1,2.4-0.2c3.2-0.3,6.3-0.5,9.5-0.6c0.7,0,1.4-0.1,2.1-0.1c0.4,0,0.7,0,1.1,0c0.4,0,0.8,0,1.2,0
					c3.1-0.1,6.1-0.2,9.1-0.2c0.8,0,1.6,0,2.4,0c0.3,0,0.6,0,0.9,0c0.5,0,0.9,0,1.4,0c3.2,0.1,6.4,0.2,9.5,0.3c0.7,0,1.4,0.1,2,0.1
					c0.5,0,1,0.1,1.5,0.1c0.3,0,0.6,0,0.8,0.1c3.5,0.2,6.9,0.6,10.3,1c0.8,0.1,1.6,0.2,2.4,0.3c3.2,0.4,6.4,0.9,9.6,1.5
					c0.8,0.1,1.6,0.3,2.4,0.4c0.1,0,0.2,0,0.3,0.1c0.2,0,0.5,0.1,0.7,0.1c2.6,0.5,5.1,1,7.7,1.6c0.5,0.1,0.9,0.2,1.3,0.3
					c0.8,0.2,1.6,0.4,2.4,0.6c2.7,0.7,5.4,1.4,8,2.2c0,0,0,0,0.1,0c0.8,0.2,1.5,0.5,2.3,0.7c0,0,0,0,0.1,0c3,0.9,6,2,9,3
					c0.8,0.3,1.6,0.6,2.4,0.9c3,1.2,6,2.4,9,3.7c0.4,0.2,0.8,0.4,1.2,0.5v0c0.4,0.2,0.8,0.3,1.1,0.5c0,0,0.1,0,0.1,0.1
					c3,1.4,5.9,2.8,8.8,4.4c0.6,0.3,1.2,0.6,1.8,1c0,0,0,0,0,0c0.1,0,0.1,0,0.1,0.1c0.1,0.1,0.3,0.1,0.4,0.2c2.5,1.4,5,2.8,7.4,4.3
					c0.5,0.3,1,0.6,1.5,0.9c0.2,0.1,0.4,0.2,0.6,0.4c0.1,0,0.2,0.1,0.2,0.1c0.9,0.5,1.7,1.1,2.6,1.7c1.7,1.1,3.3,2.2,4.8,3.3
					c0.8,0.6,1.6,1.1,2.4,1.7c2.2,1.6,4.3,3.3,6.3,4.9c0.4,0.3,0.8,0.6,1.1,0.9C1007,276.8,1007.3,277.1,1007.8,277.5
					C1007.7,277.5,1007.8,277.5,1007.8,277.5z"/>
			</g>
		</g>
		<g>
			<path class="st0" d="M980,256.3h1.5v1.4C981,257.2,980.5,256.7,980,256.3z"/>
		</g>
		<g>
			<rect y="279.4" class="st0" width="590.2" height="7.6"/>
		</g>
	</g>
</g>
</svg>
