<svg width="207" height="110" fill="none" xmlns="http://www.w3.org/2000/svg"><path d="M207 28.265h-18.012l-3.476-3.16V21.18l8.237-8.466c1.668-1.637 2.311-2.782 2.311-4.172a2.876 2.876 0 00-.269-1.524 2.822 2.822 0 00-1.017-1.153 4.918 4.918 0 00-1.586 1.745 4.993 4.993 0 00-.603 2.294v.133h-5.265l-3.597-3.415c.764-3.16 3.988-6.622 9.132-6.622h3.988c4.37 0 8.75 2.781 8.75 8.977 0 3.538-1.156 5.94-4.38 9.356l-.931 1.002h2.059l4.501 4.172v4.73l.158.028zm-17.239-1.145h15.953v-2.648h-11.871l.13-.256 6.691-6.82c2.963-3.036 3.857-5.06 3.857-8.343 0-5.44-3.857-7.568-7.333-7.842 2.702 1.39 4.119 4.048 4.119 7.463 0 2.65-1.025 4.796-3.346 7.2l-8.228 8.513v2.771l.028-.038zm-3.224-2.525l2.059 1.892v-2.403l-2.059-1.892v2.403zm10.036-1.39h8.386l-2.963-2.782h-2.562l-2.861 2.781zm-9.514-2.025l2.18 2.024 8.238-8.513c2.059-2.148 2.795-3.784 2.795-6.196 0-5.43-3.988-7.454-7.454-7.454-3.728.123-6.691 2.147-7.846 5.183l2.441 2.27a5.37 5.37 0 011.82-3.075 5.227 5.227 0 013.324-1.219 4.13 4.13 0 011.742.24 4.181 4.181 0 011.493.944c.426.419.76.924.98 1.483.22.559.32 1.159.295 1.76 0 1.637-.774 3.16-2.964 5.307l-7.044 7.246zm1.407-12.297h3.094a6.18 6.18 0 012.059-3.538 2.648 2.648 0 00-.932-.123 4.203 4.203 0 00-2.794 1.045 4.322 4.322 0 00-1.427 2.653v-.037zM34.038 84.691v-8.188h3.18v-1.164h-3.18v-3.221l-1.371.415v2.806h-2.224v1.164h2.224v7.98c0 .936.415 1.414 1.35 1.352l3.617-.208v-1.164l-3.596.228zm11.68-9.56c-2.245 0-3.554 1.268-3.97 3.138h-.415l.207-1.039v-6.879h-1.37v15.276h1.371v-4.718c0-2.744 1.6-4.614 3.866-4.614 1.808 0 2.702.852 2.702 3.055v6.277h1.372v-6.443c0-2.785-1.497-4.053-3.762-4.053zm6.294 5.217c0 2.972 1.496 5.487 5.112 5.487 3.222 0 4.386-2.183 4.801-3.804h-1.371c-.416 1.725-1.6 2.64-3.43 2.64-2.68 0-3.616-1.85-3.74-3.95h8.188v-.581c0-3.18-1.829-5.009-4.676-5.009-2.847 0-4.884 1.891-4.884 5.217zm1.372-.79c0-1.829 1.454-3.263 3.512-3.263 2.12 0 3.304 1.434 3.304 3.263h-6.816zm21.233-5.985c.769 0 1.413-.645 1.413-1.414 0-.748-.644-1.392-1.413-1.392s-1.392.644-1.392 1.392c0 .77.623 1.413 1.392 1.413zm-3.263 12.054h7.066v-1.164h-2.889v-8.189c0-.727-.332-1.226-1.267-1.143l-2.079.208v1.164l2.058-.208v8.168h-2.889v1.164zm14.624-9.332c1.808 0 2.702.852 2.702 3.055v6.277h1.371v-6.443c0-2.785-1.496-4.053-3.761-4.053-2.245 0-3.554 1.268-3.97 3.138h-.416l.208-1.039v-1.89h-1.371v10.288h1.371V80.91c0-2.744 1.6-4.614 3.866-4.614zm12.259 0c1.808 0 2.701.852 2.701 3.055v6.277h1.372v-6.443c0-2.785-1.496-4.053-3.762-4.053-2.244 0-3.553 1.268-3.97 3.138h-.415l.208-1.039v-1.89h-1.372v10.288h1.372V80.91c0-2.744 1.6-4.614 3.866-4.614zm6.605 4.177c0 2.89 2.058 5.363 5.362 5.363 3.284 0 5.342-2.474 5.342-5.362 0-2.869-2.058-5.342-5.342-5.342-3.304 0-5.362 2.473-5.362 5.341zm1.372 0c0-2.223 1.372-4.177 3.99-4.177 2.598 0 3.97 1.954 3.97 4.177 0 2.245-1.372 4.199-3.97 4.199-2.618 0-3.99-1.954-3.99-4.199zm19.129-5.133l-3.367 9.872h-.415l-3.388-9.872h-1.33l3.533 10.288h2.785l3.512-10.288h-1.33zm2.84 7.42c0 1.08.416 3.076 3.367 3.076 2.411 0 3.533-1.476 3.928-3.014h.415l-.207 1.04v.623c0 .727.415 1.143 1.143 1.143h1.745v-1.164h-1.517v-4.697c0-2.619-1.558-4.635-4.447-4.635-2.931 0-4.427 1.975-4.427 4.011h1.372c0-2.14 1.517-2.847 3.055-2.847 1.849 0 2.951 1.018 3.076 3.117l-4.282.395c-2.265.208-3.221 1.351-3.221 2.952zm1.372-.125c0-1.102.685-1.538 2.057-1.663l4.074-.395c0 2.307-1.559 4.095-4.012 4.095-1.33 0-2.119-.728-2.119-2.037zm13.067 2.057v-8.188h3.18v-1.164h-3.18v-3.221l-1.372.415v2.806h-2.223v1.164h2.223v7.98c0 .936.416 1.414 1.351 1.352l3.617-.208v-1.164l-3.596.228zm8.775-11.118c.769 0 1.413-.645 1.413-1.414 0-.748-.644-1.392-1.413-1.392s-1.393.644-1.393 1.392c0 .77.624 1.413 1.393 1.413zm-3.263 12.054h7.066v-1.164h-2.889v-8.189c0-.727-.332-1.226-1.268-1.143l-2.078.208v1.164l2.058-.208v8.168h-2.889v1.164zm8.342-5.155c0 2.89 2.057 5.363 5.362 5.363 3.283 0 5.341-2.474 5.341-5.362 0-2.869-2.058-5.342-5.341-5.342-3.305 0-5.362 2.473-5.362 5.341zm1.371 0c0-2.223 1.372-4.177 3.991-4.177 2.597 0 3.969 1.954 3.969 4.177 0 2.245-1.372 4.199-3.969 4.199-2.619 0-3.991-1.954-3.991-4.199zm17.109-4.177c1.808 0 2.701.852 2.701 3.055v6.277h1.372v-6.443c0-2.785-1.496-4.053-3.762-4.053-2.244 0-3.554 1.268-3.969 3.138h-.416l.208-1.039v-1.89h-1.372v10.288h1.372V80.91c0-2.744 1.6-4.614 3.866-4.614zm-61.912 15.172h1.787v-1.164h-1.787c-2.265 0-3.159 1.268-3.159 3.159v1.829h-2.328v1.164h2.328v7.96h-2.328v1.163h6.692v-1.163h-2.992v-7.96h2.992V95.29h-2.992v-1.808c0-1.372.394-2.016 1.787-2.016zm3.489 11.243c0 1.081.416 3.076 3.367 3.076 2.411 0 3.533-1.475 3.928-3.013h.415l-.207 1.039v.623c0 .728.415 1.143 1.143 1.143h1.745v-1.163h-1.517v-4.697c0-2.619-1.558-4.635-4.447-4.635-2.931 0-4.427 1.974-4.427 4.011h1.372c0-2.14 1.517-2.847 3.055-2.847 1.849 0 2.951 1.018 3.076 3.117l-4.282.395c-2.265.208-3.221 1.351-3.221 2.951zm1.372-.124c0-1.102.685-1.538 2.057-1.663l4.074-.395c0 2.307-1.559 4.094-4.012 4.094-1.33 0-2.119-.727-2.119-2.036zm10.318-2.162c0 2.889 1.829 5.362 5.175 5.362 1.829 0 4.365-1.039 4.656-4.032h-1.393c-.332 2.183-1.725 2.868-3.263 2.868-2.618 0-3.803-1.953-3.803-4.198 0-2.224 1.185-4.177 3.803-4.177 1.538 0 2.931.686 3.263 2.868h1.393c-.291-2.993-2.827-4.032-4.656-4.032-3.346 0-5.175 2.473-5.175 5.341zm14.501 4.219v-8.188h3.179V95.29h-3.179v-3.222l-1.372.416v2.806h-2.224v1.164h2.224v7.98c0 .936.416 1.414 1.351 1.351l3.616-.208v-1.163l-3.595.228zm5.085-4.219c0 2.889 2.058 5.362 5.362 5.362 3.284 0 5.341-2.473 5.341-5.362 0-2.868-2.057-5.341-5.341-5.341-3.304 0-5.362 2.473-5.362 5.341zm1.372 0c0-2.224 1.371-4.177 3.99-4.177 2.598 0 3.97 1.954 3.97 4.177 0 2.245-1.372 4.198-3.97 4.198-2.619 0-3.99-1.953-3.99-4.198zm11.871 5.154h1.372v-9.331l5.486.208V95.29l-5.507-.208c-.935-.042-1.351.416-1.351 1.35v9.145zM178.17 95.29l-3.43 8.48v.624h-.415v-.624l-3.45-8.48h-1.476l4.448 10.288v2.785l-3.741-.207v1.163l3.762.208c.935.042 1.35-.415 1.35-1.143v-2.806l4.427-10.287h-1.475z" fill="#fff"/><path d="M183.723 40.735H0v21.614h183.723V40.735z" fill="#FF5C00"/><path d="M24.465 45.257c0 1.696-.265 3.143-.798 4.34-.532 1.197-1.28 2.178-2.244 2.943-.964.731-2.145 1.264-3.542 1.596-1.396.366-2.96.549-4.688.549-1.63 0-3.06-.05-4.29-.15-1.197-.066-2.211-.166-3.043-.3a18.11 18.11 0 01-2.494-.498v-8.33H10.3v3.442c.2.066.465.116.798.15.266.033.598.066.997.1h1.497c1.363 0 2.294-.3 2.793-.899a3.44 3.44 0 00.748-2.194 3.47 3.47 0 00-.25-1.347 3.397 3.397 0 00-.747-1.097c-.3-.366-.699-.715-1.197-1.048a100.35 100.35 0 00-1.646-1.147l-4.889-3.192c-1.363-.898-2.544-2.062-3.541-3.492-.965-1.463-1.447-3.325-1.447-5.587 0-2.959.865-5.187 2.594-6.683 1.73-1.53 4.373-2.295 7.93-2.295 1.597 0 2.994.05 4.19.15 1.198.1 2.196.2 2.994.3.93.132 1.729.282 2.394.448v8.08h-6.983v-3.192a28.28 28.28 0 00-.649-.1c-.2-.033-.449-.05-.748-.05-.3-.033-.632-.05-.998-.05-1.396 0-2.327.3-2.793.898-.465.566-.698 1.28-.698 2.145 0 1.064.25 1.846.748 2.345.532.498 1.23 1.014 2.095 1.546l5.786 3.591c1.696 1.064 2.976 2.295 3.84 3.691.899 1.364 1.348 3.143 1.348 5.337zm24.461 13.917l-9.577-4.49h-.1c-2.294 0-4.14-.232-5.536-.698-1.397-.498-2.46-1.147-3.192-1.945a6.269 6.269 0 01-1.447-2.793 14.447 14.447 0 01-.349-3.192V28.648c0-1.696.233-3.093.698-4.19.466-1.098 1.148-1.962 2.046-2.594.897-.665 2.011-1.114 3.341-1.347 1.33-.266 2.86-.399 4.59-.399 2.427 0 4.339.25 5.736.748 1.396.5 2.444 1.164 3.142 1.995a5.716 5.716 0 011.297 2.844c.2 1.064.299 2.161.299 3.292v16.959c0 2.992-.748 5.154-2.245 6.484l4.24 2.095-2.943 4.639zm-6.334-30.078c0-1.263-.2-2.144-.599-2.643-.399-.499-1.28-.748-2.644-.748-.698 0-1.263.066-1.695.2-.433.132-.765.332-.998.598-.233.266-.4.615-.499 1.047-.066.433-.1.948-.1 1.546v16.86c0 1.03.2 1.829.599 2.394.399.532 1.264.798 2.594.798 1.363 0 2.26-.25 2.693-.748.433-.532.649-1.347.649-2.444v-16.86zM77.01 46.305c0 1.03-.117 2.045-.35 3.043-.233.997-.715 1.895-1.446 2.693-.732.798-1.78 1.447-3.143 1.945-1.363.466-3.159.699-5.387.699-2.36 0-4.256-.217-5.686-.649-1.43-.465-2.527-1.08-3.292-1.845-.765-.765-1.28-1.646-1.546-2.644a14.686 14.686 0 01-.35-3.242V20.767h7.333v25.289c0 .964.216 1.729.648 2.294.466.532 1.38.798 2.744.798 1.296 0 2.144-.283 2.543-.848.4-.565.599-1.313.599-2.244v-25.29h7.332v25.539zm20.592 7.731l-1.796-8.579H90.02l-1.496 8.58h-7.482l6.484-33.27H98.45l6.734 33.27h-7.582zm-3.591-20.8a28.705 28.705 0 01-.4-2.144 234.42 234.42 0 00-.299-2.494 236.13 236.13 0 01-.399-2.943 219.35 219.35 0 01-.399 2.943c-.133.831-.266 1.679-.399 2.544-.133.864-.232 1.58-.299 2.144L90.67 40.07h4.539l-1.197-6.834zm29.46 20.8l-5.088-14.116h-1.945v14.116h-7.332v-33.27h10.424c1.53 0 2.927.1 4.19.3 1.297.166 2.395.532 3.292 1.097.931.532 1.646 1.297 2.145 2.295.499.964.748 2.26.748 3.89v2.444c0 .998-.083 1.946-.249 2.843a8.049 8.049 0 01-.748 2.395 5.131 5.131 0 01-1.397 1.845c-.565.5-1.297.848-2.195 1.048l5.986 15.113h-7.831zm-.649-24.092c0-.83-.099-1.48-.299-1.945-.166-.465-.449-.798-.848-.997-.366-.233-.831-.366-1.396-.4a34.544 34.544 0 00-1.996-.05h-1.845v7.582h3.691c.565-.033 1.047-.15 1.446-.349.399-.2.699-.515.898-.948.233-.432.349-1.08.349-1.945v-.948zm12.1 24.092v-33.27h17.258v5.787h-9.926v7.332h9.078v5.786h-9.078v8.58h10.126v5.785h-17.458zm44.189-8.878c0 1.795-.166 3.275-.499 4.439-.332 1.164-.898 2.078-1.696 2.743-.764.632-1.779 1.081-3.042 1.347-1.264.233-2.827.35-4.689.35h-11.223v-33.27h10.974c1.795 0 3.325.133 4.589.399 1.296.232 2.344.681 3.142 1.346.831.632 1.447 1.513 1.846 2.644.399 1.13.598 2.594.598 4.39v15.612zm-7.282-15.214c0-.731-.05-1.313-.15-1.745-.1-.466-.299-.815-.599-1.048-.266-.233-.648-.382-1.147-.449-.465-.1-1.097-.15-1.895-.15h-2.744V48.25h2.943c.798 0 1.43-.05 1.896-.15.499-.132.864-.332 1.097-.598.266-.3.432-.682.499-1.147.066-.499.1-1.098.1-1.796V29.944z" fill="#fff"/></svg>